<?xml version="1.0"?><svg fill="#000000" xmlns="http://www.w3.org/2000/svg"  viewBox="0 0 50 50" width="50px" height="50px">    <path d="M 12.183594 3 C 11.698594 3 11.283219 3.3481719 11.199219 3.8261719 L 3.7949219 45.826172 C 3.6869219 46.439172 4.1572969 47 4.7792969 47 L 8.7792969 47 C 9.2642969 47 9.6796719 46.651828 9.7636719 46.173828 L 17.169922 4.1738281 C 17.277922 3.5608281 16.805594 3 16.183594 3 L 12.183594 3 z M 22.183594 3 C 21.698594 3 21.283219 3.3481719 21.199219 3.8261719 L 13.794922 45.826172 C 13.686922 46.439172 14.157297 47 14.779297 47 L 18.779297 47 C 19.264297 47 19.678672 46.651828 19.763672 46.173828 L 22.792969 29 L 28.566406 29 L 33.822266 46.291016 C 33.950266 46.712016 34.339297 47 34.779297 47 L 38.779297 47 C 39.450297 47 39.931328 46.351984 39.736328 45.708984 L 34.65625 29 L 35.953125 29 C 39.724125 29 43.331141 25.937828 43.994141 22.173828 L 46.111328 10.173828 C 46.449328 8.2578281 46.002469 6.4490312 44.855469 5.0820312 C 43.728469 3.7390313 42.069594 3 40.183594 3 L 22.183594 3 z M 13.023438 5 L 14.992188 5 L 7.9394531 45 L 5.9707031 45 L 13.023438 5 z M 23.023438 5 L 40.183594 5 C 41.468594 5 42.584219 5.4851875 43.324219 6.3671875 C 44.085219 7.2741875 44.375578 8.5031719 44.142578 9.8261719 L 42.025391 21.826172 C 41.522391 24.679172 38.799125 27 35.953125 27 L 31.958984 27 L 37.429688 45 L 35.519531 45 L 30.048828 27 L 21.113281 27 L 17.939453 45 L 15.970703 45 L 23.023438 5 z M 24.640625 7 L 21.466797 25 L 35.658203 25 C 37.811203 25 39.794875 23.318828 40.171875 21.173828 L 41.935547 11.173828 C 42.127547 10.082828 41.858266 9.0077031 41.197266 8.2207031 C 40.537266 7.4337031 39.571516 7 38.478516 7 L 24.640625 7 z M 26.318359 9 L 38.478516 9 C 38.970516 9 39.393969 9.1808594 39.667969 9.5058594 C 39.950969 9.8438594 40.057797 10.312172 39.966797 10.826172 L 38.201172 20.826172 C 37.993172 22.005172 36.829203 23 35.658203 23 L 23.849609 23 L 26.318359 9 z"/></svg>